<svg width="26" height="30" viewBox="0 0 26 30" fill="none" xmlns="http://www.w3.org/2000/svg">
<path d="M20.1157 16.5844C20.12 16.5503 20.12 16.5158 20.1157 16.4817C19.3504 14.6556 17.9025 13.2004 16.0804 12.4258V8.70883H17.1072C17.3795 8.70883 17.6407 8.60065 17.8332 8.40809C18.0258 8.21552 18.134 7.95435 18.134 7.68203C18.134 7.40971 18.0258 7.14853 17.8332 6.95597C17.6407 6.76341 17.3795 6.65523 17.1072 6.65523H8.89278C8.62046 6.65523 8.35929 6.76341 8.16672 6.95597C7.97416 7.14853 7.86598 7.40971 7.86598 7.68203C7.86598 7.95435 7.97416 8.21552 8.16672 8.40809C8.35929 8.60065 8.62046 8.70883 8.89278 8.70883H9.91958V12.4258C8.10325 13.2213 6.66983 14.6953 5.92533 16.533C5.92103 16.5671 5.92103 16.6016 5.92533 16.6357C5.44113 17.8057 5.2529 19.0771 5.37731 20.3372C5.50172 21.5973 5.93493 22.8073 6.63858 23.86C7.34222 24.9127 8.2946 25.7757 9.41136 26.3725C10.5281 26.9693 11.7748 27.2815 13.0411 27.2815C14.3073 27.2815 15.554 26.9693 16.6707 26.3725C17.7875 25.7757 18.7399 24.9127 19.4435 23.86C20.1472 22.8073 20.5804 21.5973 20.7048 20.3372C20.8292 19.0771 20.641 17.8057 20.1568 16.6357L20.1157 16.5844ZM11.2647 14.1098C11.4705 14.0427 11.6499 13.9122 11.7772 13.737C11.9044 13.5618 11.973 13.3509 11.9732 13.1343V8.70883H14.0268V13.1343C14.0269 13.3509 14.0955 13.5618 14.2228 13.737C14.35 13.9122 14.5294 14.0427 14.7353 14.1098C15.7588 14.4412 16.6646 15.0617 17.3433 15.8964H8.65662C9.33539 15.0617 10.2412 14.4412 11.2647 14.1098ZM13 25.1376C11.503 25.1349 10.0682 24.5391 9.00966 23.4805C7.95116 22.422 7.35529 20.9872 7.35258 19.4902C7.35368 18.9687 7.42976 18.45 7.57848 17.95H18.4215C18.5702 18.45 18.6463 18.9687 18.6474 19.4902C18.6447 20.9872 18.0488 22.422 16.9903 23.4805C15.9318 24.5391 14.4969 25.1349 13 25.1376ZM15.0536 21.0304C14.8505 21.0304 14.652 21.0906 14.4831 21.2035C14.3143 21.3163 14.1827 21.4767 14.1049 21.6643C14.0272 21.8519 14.0069 22.0584 14.0465 22.2576C14.0861 22.4567 14.1839 22.6397 14.3275 22.7833C14.4711 22.9269 14.6541 23.0247 14.8533 23.0643C15.0524 23.1039 15.2589 23.0836 15.4465 23.0059C15.6341 22.9282 15.7945 22.7965 15.9073 22.6277C16.0202 22.4588 16.0804 22.2603 16.0804 22.0572C16.0804 21.7849 15.9722 21.5237 15.7796 21.3312C15.5871 21.1386 15.3259 21.0304 15.0536 21.0304ZM10.9464 20.0036C10.7433 20.0036 10.5448 20.0639 10.3759 20.1767C10.2071 20.2895 10.0755 20.4499 9.99774 20.6375C9.92002 20.8251 9.89969 21.0316 9.93931 21.2308C9.97893 21.4299 10.0767 21.6129 10.2203 21.7565C10.3639 21.9001 10.5469 21.9979 10.7461 22.0375C10.9452 22.0771 11.1517 22.0568 11.3393 21.9791C11.5269 21.9014 11.6873 21.7697 11.8001 21.6009C11.913 21.432 11.9732 21.2335 11.9732 21.0304C11.9732 20.7581 11.865 20.4969 11.6724 20.3044C11.4799 20.1118 11.2187 20.0036 10.9464 20.0036Z" fill="white"/>
<g clip-path="url(#clip0_1_202)">
<path d="M24.3763 4.03605C22.6779 4.10834 21.2958 5.44198 21.1638 7.13675L21.1514 7.13653C21.0791 5.43815 19.7452 4.05653 18.0507 3.9243L18.0509 3.91191C19.7493 3.83935 21.1309 2.50571 21.2632 0.810939L21.2755 0.811158C21.3478 2.50954 22.6817 3.89116 24.3765 4.02366L24.3763 4.03605Z" fill="white"/>
</g>
<defs>
<clipPath id="clip0_1_202">
<rect width="6.32658" height="6.32658" fill="white" transform="translate(18.1067 0.755173) rotate(1.01215)"/>
</clipPath>
</defs>
</svg>
